<svg version="1.1" xmlns="http://www.w3.org/2000/svg" style="display: block;" viewBox="0 0 2048 2048" width="526" height="526" preserveAspectRatio="none">
<path transform="translate(0,0)" fill="rgb(253,252,252)" d="M 0 0 L 2048 0 L 2048 2048 L 0 2048 L 0 0 z"/>
<path transform="translate(0,0)" fill="rgb(241,245,202)" d="M 1655.11 467.148 C 1672.77 459.719 1690.56 451.633 1708.2 443.979 C 1723.23 437.456 1741.79 430.264 1756.12 422.902 C 1799.11 494.291 1840.6 564.459 1873.2 641.94 C 1960.99 850.602 2001.64 1086.19 1948.98 1309.54 C 1895.26 1537.36 1728.8 1730.54 1533.04 1852.5 C 1459.87 1898.09 1373.26 1925.71 1290.61 1947.47 C 1278.2 1950.63 1246.58 1960.38 1235.73 1961.9 C 1221.97 1964.69 1208.56 1969.39 1194.65 1972.2 C 1186.34 1975.44 1145.03 1982.85 1133.73 1984.93 C 972.579 2014.57 795.311 2008.59 632.921 1988.79 C 570.472 1981.18 496.912 1969.59 437.777 1950.41 C 340.88 1918.97 246.691 1850.9 185.027 1770.19 C 98.1796 1656.51 75.3448 1534.44 78.6989 1394.09 C 80.678 1311.28 87.334 1240.66 97.8604 1158.58 C 97.7894 1153.78 98.3782 1151.07 99.1489 1146.38 C 108.23 1141.39 126.361 1134.72 136.734 1130.41 C 158.674 1121.28 180.532 1111.96 202.305 1102.44 C 207.701 1099.76 235.716 1089.54 243.882 1086.35 C 263.463 1078.71 298.595 1060.02 316.915 1055.01 C 331.15 1047.88 347.937 1041.4 362.728 1035.21 C 380.115 1027.86 397.433 1020.34 414.68 1012.67 C 484.977 981.224 555.533 950.366 626.341 920.093 C 656.473 907.134 686.504 893.942 716.432 880.519 C 736.562 871.381 757.32 860.864 778.013 853.505 C 801.959 840.21 832.96 831.049 858.235 819.208 C 877.39 810.235 889.472 799.856 911.059 799.519 C 938.322 760.948 966.155 722.783 994.549 685.037 C 996.857 686.219 1002.8 689.471 1004.91 690.282 C 1016.73 696.501 1027.32 702.762 1038.8 709.591 C 1076.98 734.647 1111.88 760.733 1144.77 792.529 C 1150.01 797.596 1163.48 809.281 1167.62 814.21 C 1170.39 814.476 1173.54 815.612 1176.01 815.055 C 1193.73 811.058 1202.05 794.83 1211.09 780.93 C 1212.73 778.406 1213.22 777.815 1215.96 777.459 L 1220.51 768.732 C 1231.17 757.795 1250.61 730.757 1260.06 717.93 L 1324.48 630.848 C 1332.61 619.939 1340.9 607.247 1349.31 597.001 C 1364.9 596.754 1526.36 520.432 1555.11 510.346 C 1562.94 508.953 1645.02 472.404 1655.11 467.148 z"/>
<path transform="translate(0,0)" fill="rgb(129,195,124)" d="M 1655.11 467.148 C 1672.77 459.719 1690.56 451.633 1708.2 443.979 C 1723.23 437.456 1741.79 430.264 1756.12 422.902 C 1799.11 494.291 1840.6 564.459 1873.2 641.94 C 1960.99 850.602 2001.64 1086.19 1948.98 1309.54 C 1895.26 1537.36 1728.8 1730.54 1533.04 1852.5 C 1459.87 1898.09 1373.26 1925.71 1290.61 1947.47 C 1278.2 1950.63 1246.58 1960.38 1235.73 1961.9 C 1221.97 1964.69 1208.56 1969.39 1194.65 1972.2 C 1186.34 1975.44 1145.03 1982.85 1133.73 1984.93 C 972.579 2014.57 795.311 2008.59 632.921 1988.79 C 570.472 1981.18 496.912 1969.59 437.777 1950.41 C 340.88 1918.97 246.691 1850.9 185.027 1770.19 C 98.1796 1656.51 75.3448 1534.44 78.6989 1394.09 C 80.678 1311.28 87.334 1240.66 97.8604 1158.58 C 97.7894 1153.78 98.3782 1151.07 99.1489 1146.38 C 108.23 1141.39 126.361 1134.72 136.734 1130.41 C 158.674 1121.28 180.532 1111.96 202.305 1102.44 C 207.701 1099.76 235.716 1089.54 243.882 1086.35 C 263.463 1078.71 298.595 1060.02 316.915 1055.01 C 315.649 1077.37 325.155 1115.14 330.202 1137.56 C 350.093 1225.92 383.947 1312.7 431.488 1389.88 C 446.112 1413.62 465.255 1438.14 482.436 1460.04 C 491.655 1473.67 451.188 1568 442.969 1584.24 L 442.716 1585.16 L 446.364 1588.08 L 446.577 1590.88 C 448.565 1591.97 447.691 1591.82 449.033 1591.91 L 452.216 1595.87 C 465.069 1607.24 477.443 1621.55 489.981 1633.32 C 690.446 1821.67 989.196 1904 1257.26 1839.05 C 1312.18 1825.74 1352.38 1815.78 1405 1792.26 C 1452.52 1770.68 1497.54 1743.96 1539.24 1712.57 C 1584.68 1678 1627 1639.51 1665.72 1597.55 C 1774.89 1479.86 1833.15 1364.23 1855.76 1203.92 C 1878.23 1044.59 1842.3 872.277 1785.44 723.383 C 1769.82 682.488 1744.68 629.379 1724.94 590.225 C 1708.87 558.35 1676.11 495.16 1655.11 467.148 z"/>
<path transform="translate(0,0)" fill="rgb(24,150,70)" d="M 97.8604 1158.58 C 98.6605 1155.27 99.1753 1151.4 101.058 1148.84 L 102.508 1149.67 C 123.493 1250.71 162.133 1363.09 209.188 1454.94 C 284.144 1601.25 408.648 1726.67 545.599 1816.42 C 697.123 1914.66 872.979 1968.83 1053.52 1972.87 C 1079.2 1973.29 1104.9 1972.57 1130.52 1970.73 C 1148.03 1969.4 1166.66 1967.03 1183.94 1966.03 C 1188.61 1966.13 1195.58 1965.51 1198.96 1967.81 C 1197.75 1970.72 1197.64 1970.08 1194.65 1972.2 C 1186.34 1975.44 1145.03 1982.85 1133.73 1984.93 C 972.579 2014.57 795.311 2008.59 632.921 1988.79 C 570.472 1981.18 496.912 1969.59 437.777 1950.41 C 340.88 1918.97 246.691 1850.9 185.027 1770.19 C 98.1796 1656.51 75.3448 1534.44 78.6989 1394.09 C 80.678 1311.28 87.334 1240.66 97.8604 1158.58 z"/>
<path transform="translate(0,0)" fill="rgb(241,245,202)" d="M 202.305 1102.44 C 207.701 1099.76 235.716 1089.54 243.882 1086.35 C 263.463 1078.71 298.595 1060.02 316.915 1055.01 C 315.649 1077.37 325.155 1115.14 330.202 1137.56 C 350.093 1225.92 383.947 1312.7 431.488 1389.88 C 446.112 1413.62 465.255 1438.14 482.436 1460.04 C 491.655 1473.67 451.188 1568 442.969 1584.24 C 439.803 1583.14 421.815 1563.1 416.241 1558.09 C 319.389 1446.27 275.338 1353.41 232.473 1212.34 C 226.048 1190.55 220.133 1168.61 214.733 1146.54 C 212.552 1137.89 205.786 1108.99 202.305 1102.44 z"/>
<path transform="translate(0,0)" fill="rgb(38,166,78)" d="M 1183.94 1966.03 C 1189.95 1964.65 1233.68 1957.17 1237.21 1960.02 L 1235.73 1961.9 C 1221.97 1964.69 1208.56 1969.39 1194.65 1972.2 C 1197.64 1970.08 1197.75 1970.72 1198.96 1967.81 C 1195.58 1965.51 1188.61 1966.13 1183.94 1966.03 z"/>
<path transform="translate(0,0)" fill="rgb(178,213,76)" d="M 416.241 1558.09 C 421.815 1563.1 439.803 1583.14 442.969 1584.24 L 442.716 1585.16 C 441.652 1585.29 442.123 1585.16 441.017 1585.65 L 438.035 1586.96 C 429.994 1582.67 418.344 1566.89 416.241 1558.09 z"/>
<path transform="translate(0,0)" fill="rgb(178,213,76)" d="M 770.626 1296.87 C 774.282 1291.16 792.134 1271.23 797.636 1264.87 L 861.366 1191.35 L 989.048 1038.94 C 999.603 1026.35 1009.54 1012.62 1020.23 1000.41 L 1249.37 1413.92 L 1314.8 1532.6 C 1326.07 1553.09 1342.84 1578.79 1350.22 1600.38 C 1381.67 1692.4 1282.17 1721.83 1217.17 1734.95 C 1098.79 1758.44 976.505 1753.33 860.492 1720.05 C 801.234 1702.58 691.976 1667.45 697.049 1588.69 C 698.424 1567.35 707.446 1539.47 713.36 1518.52 C 719.591 1496.39 725.67 1474.21 731.598 1452 C 737.596 1430.39 743.265 1408.7 748.604 1386.92 C 754.857 1361.21 760.444 1335.42 768.814 1310.34 C 770.326 1305.8 771.561 1301.62 770.626 1296.87 z"/>
<path transform="translate(0,0)" fill="rgb(34,64,100)" d="M 994.549 685.037 C 996.857 686.219 1002.8 689.471 1004.91 690.282 C 1016.73 696.501 1027.32 702.762 1038.8 709.591 C 1076.98 734.647 1111.88 760.733 1144.77 792.529 C 1150.01 797.596 1163.48 809.281 1167.62 814.21 C 1161.53 822.284 1154.97 830.681 1149.22 838.957 C 1133.37 859.599 1117.23 880.019 1100.8 900.21 C 1094.2 908.332 1079.78 924.957 1074.32 932.89 L 1039.14 976.562 C 1033.51 983.538 1025.06 993.26 1020.23 1000.41 C 1009.54 1012.62 999.603 1026.35 989.048 1038.94 L 861.366 1191.35 L 797.636 1264.87 C 792.134 1271.23 774.282 1291.16 770.626 1296.87 C 762.611 1305.13 754.636 1313.38 748.443 1323.15 C 747.668 1328.95 746.945 1331.13 742.523 1335.37 C 737.489 1340.21 729.117 1340.15 724.827 1342.72 C 716.632 1360.1 709.436 1361.93 694.559 1348.19 C 676.348 1333.58 659.576 1320.76 640.852 1306.8 L 632.796 1300.76 C 625.987 1294.8 616.99 1289.05 609.408 1283.9 C 608.62 1286.83 607.752 1290.18 605.446 1292.32 C 568.948 1326.29 527.509 1355.57 495.432 1393.95 C 482.338 1409.62 490.324 1448.91 482.436 1460.04 C 465.255 1438.14 446.112 1413.62 431.488 1389.88 C 383.947 1312.7 350.093 1225.92 330.202 1137.56 C 325.155 1115.14 315.649 1077.37 316.915 1055.01 C 331.15 1047.88 347.937 1041.4 362.728 1035.21 C 380.115 1027.86 397.433 1020.34 414.68 1012.67 C 484.977 981.224 555.533 950.366 626.341 920.093 C 656.473 907.134 686.504 893.942 716.432 880.519 C 736.562 871.381 757.32 860.864 778.013 853.505 C 801.959 840.21 832.96 831.049 858.235 819.208 C 877.39 810.235 889.472 799.856 911.059 799.519 C 938.322 760.948 966.155 722.783 994.549 685.037 z"/>
<path transform="translate(0,0)" fill="rgb(178,213,76)" d="M 778.013 853.505 C 817.444 858.515 792.173 908.98 784.417 930.04 C 776.417 952.296 768.13 974.448 759.558 996.491 C 756.621 1003.99 746.197 1027.3 746.71 1033.95 L 748.602 1036.05 C 742.698 1046.55 731.547 1062.13 724.646 1072.52 C 711.371 1092.64 698.215 1112.84 685.179 1133.12 L 645.558 1194.93 C 639.08 1205.17 631.326 1218.97 624.397 1228.3 C 616.104 1231.15 610.324 1238.46 605.191 1245.3 C 605.957 1246.79 609.211 1253.41 610.026 1254.23 C 592.457 1264.2 594.949 1272.99 609.408 1283.9 C 608.62 1286.83 607.752 1290.18 605.446 1292.32 C 568.948 1326.29 527.509 1355.57 495.432 1393.95 C 482.338 1409.62 490.324 1448.91 482.436 1460.04 C 465.255 1438.14 446.112 1413.62 431.488 1389.88 C 383.947 1312.7 350.093 1225.92 330.202 1137.56 C 325.155 1115.14 315.649 1077.37 316.915 1055.01 C 331.15 1047.88 347.937 1041.4 362.728 1035.21 C 380.115 1027.86 397.433 1020.34 414.68 1012.67 C 484.977 981.224 555.533 950.366 626.341 920.093 C 656.473 907.134 686.504 893.942 716.432 880.519 C 736.562 871.381 757.32 860.864 778.013 853.505 z"/>
<path transform="translate(0,0)" fill="rgb(241,245,202)" d="M 778.013 853.505 C 801.959 840.21 832.96 831.049 858.235 819.208 C 877.39 810.235 889.472 799.856 911.059 799.519 C 877.014 846.926 843.585 894.773 810.78 943.047 C 791.781 971.329 767.919 1010.16 748.602 1036.05 L 746.71 1033.95 C 746.197 1027.3 756.621 1003.99 759.558 996.491 C 768.13 974.448 776.417 952.296 784.417 930.04 C 792.173 908.98 817.444 858.515 778.013 853.505 z"/>
<path transform="translate(0,0)" fill="rgb(185,198,213)" d="M 624.397 1228.3 C 631.879 1237.75 678.226 1267.76 690.627 1277.33 C 703.31 1287.12 718.449 1299.09 731.52 1308.84 C 735.552 1311.85 745.326 1322.53 748.443 1323.15 C 747.668 1328.95 746.945 1331.13 742.523 1335.37 C 737.489 1340.21 729.117 1340.15 724.827 1342.72 C 716.632 1360.1 709.436 1361.93 694.559 1348.19 C 676.348 1333.58 659.576 1320.76 640.852 1306.8 L 632.796 1300.76 C 625.987 1294.8 616.99 1289.05 609.408 1283.9 C 594.949 1272.99 592.457 1264.2 610.026 1254.23 C 609.211 1253.41 605.957 1246.79 605.191 1245.3 C 610.324 1238.46 616.104 1231.15 624.397 1228.3 z"/>
<path transform="translate(0,0)" fill="rgb(34,64,100)" d="M 609.408 1283.9 C 594.949 1272.99 592.457 1264.2 610.026 1254.23 C 624.047 1259.74 722.166 1332.22 724.827 1342.72 C 716.632 1360.1 709.436 1361.93 694.559 1348.19 C 676.348 1333.58 659.576 1320.76 640.852 1306.8 L 632.796 1300.76 C 625.987 1294.8 616.99 1289.05 609.408 1283.9 z"/>
<path transform="translate(0,0)" fill="rgb(253,252,252)" d="M 657.618 1258.92 C 658.054 1263.07 657.561 1265.98 654.89 1269.25 C 648.392 1272.93 645.033 1269.98 640.579 1265.42 C 640.77 1262.69 640.762 1263.33 641.692 1260.65 C 644.227 1258.7 642.827 1259.14 646.044 1259.34 C 649.497 1261.67 651.115 1262.55 654.862 1264.42 C 657.352 1262.69 656.626 1262.72 657.618 1258.92 z"/>
<path transform="translate(0,0)" fill="rgb(74,103,140)" d="M 993.987 720.454 C 998.087 722.486 1024.28 739.56 1028.84 742.607 L 973.472 817.621 C 913.064 900.442 853.786 984.083 795.657 1068.52 C 754.678 1126.73 714.85 1185.74 676.193 1245.52 C 674.64 1247.89 674.846 1247.96 672.327 1249.14 C 664.948 1248.35 651.908 1238.16 645.313 1233.54 C 663.75 1202.76 681.988 1175.15 701.293 1145.2 C 739.997 1084.33 780.028 1024.32 821.356 965.204 C 837.573 941.658 853.332 917.425 869.494 894.107 C 910.14 835.617 951.642 777.726 993.987 720.454 z"/>
<path transform="translate(0,0)" fill="rgb(178,213,76)" d="M 1149.22 838.957 C 1149.47 839.099 1149.72 839.241 1149.97 839.383 C 1191.64 855.504 1234.27 871.397 1275.89 887.629 L 1583.14 1008.07 C 1606.97 1017.2 1630.71 1026.52 1654.38 1036.05 C 1669.67 1042.19 1693.67 1051.23 1706.8 1060.4 C 1724.78 1072.8 1737.96 1091 1744.12 1111.96 C 1766.24 1185.61 1721.7 1324.41 1684.2 1387.57 C 1653.29 1439.6 1569.22 1584.66 1493.03 1537.22 C 1467.13 1521.09 1439.89 1473.83 1422.17 1447.23 C 1395.77 1408.01 1369.59 1368.64 1343.63 1329.12 L 1155.85 1051.12 C 1136.08 1021.41 1115.95 991.954 1095.44 962.753 C 1089.86 954.879 1080.15 939.475 1074.32 932.89 C 1079.78 924.957 1094.2 908.332 1100.8 900.21 C 1117.23 880.019 1133.37 859.599 1149.22 838.957 z"/>
<path transform="translate(0,0)" fill="rgb(178,213,76)" d="M 1555.11 510.346 C 1573.5 538.249 1588.03 566.743 1603.4 596.295 C 1627.66 642.593 1650.07 689.169 1669.52 737.767 C 1686.52 780.236 1704.69 820.58 1715.4 865.433 C 1725.92 909.443 1704.88 947.973 1654.16 936.107 C 1628.71 930.154 1604.37 918.954 1579.64 910.561 C 1567.41 906.2 1555.23 901.612 1542.96 897.277 L 1343.27 824.795 C 1301.55 809.235 1257.9 791.899 1215.96 777.459 L 1220.51 768.732 C 1231.17 757.795 1250.61 730.757 1260.06 717.93 L 1324.48 630.848 C 1332.61 619.939 1340.9 607.247 1349.31 597.001 C 1364.9 596.754 1526.36 520.432 1555.11 510.346 z"/>
<path transform="translate(0,0)" fill="rgb(225,188,95)" d="M 609.408 1283.9 C 616.99 1289.05 625.987 1294.8 632.796 1300.76 L 640.852 1306.8 C 659.576 1320.76 676.348 1333.58 694.559 1348.19 C 691.351 1354.96 688.688 1362.14 685.956 1369.15 C 671.236 1406.93 652.663 1442.96 636.528 1480.13 C 633.947 1486.07 630.199 1492.14 626.36 1497.34 C 613.441 1503.14 598.117 1506.91 584.537 1511.95 C 552.675 1523.76 524.349 1539.71 495.93 1558.38 C 481.627 1561.64 488.923 1567.77 476.577 1562.88 C 474.515 1563.37 472.735 1563.75 470.713 1564.42 L 456.531 1582.48 L 449.033 1591.91 C 447.691 1591.82 448.565 1591.97 446.577 1590.88 L 446.364 1588.08 L 442.716 1585.16 L 442.969 1584.24 C 451.188 1568 491.655 1473.67 482.436 1460.04 C 490.324 1448.91 482.338 1409.62 495.432 1393.95 C 527.509 1355.57 568.948 1326.29 605.446 1292.32 C 607.752 1290.18 608.62 1286.83 609.408 1283.9 z"/>
<path transform="translate(0,0)" fill="rgb(242,221,162)" d="M 516.314 1390.2 C 544.283 1368.28 568.963 1341.9 595.086 1317.81 C 600.693 1312.64 607.944 1306.83 614.226 1302.23 C 615.056 1300.21 615.755 1298.5 616.322 1297.12 C 620.864 1294.36 625.977 1300.02 632.796 1300.76 L 640.852 1306.8 C 638.151 1311.64 614.057 1329.55 607.579 1335.35 C 580.449 1359.64 556.946 1385.15 531.535 1410.92 C 526.574 1403.76 521.966 1396.86 516.314 1390.2 z"/>
<path transform="translate(0,0)" fill="rgb(34,64,100)" d="M 552.954 1443.9 C 536.74 1424.47 554.568 1404.57 575.025 1410.04 C 602.221 1417.33 587.465 1464.11 558.001 1448.27 C 553.993 1447.39 554.659 1447.36 552.954 1443.9 z"/>
<path transform="translate(0,0)" fill="rgb(65,65,66)" d="M 552.954 1443.9 C 554.659 1447.36 553.993 1447.39 558.001 1448.27 C 542.455 1465.96 525.309 1491.29 511.017 1510.71 C 499.087 1526.93 481.275 1548.37 470.713 1564.42 L 456.531 1582.48 C 456.756 1579.14 456.949 1579.24 455.701 1576.2 C 458.736 1570.34 474.719 1550.23 479.263 1543.59 C 502.299 1509.94 529.813 1477.16 552.954 1443.9 z"/>
<path transform="translate(0,0)" fill="rgb(30,27,29)" d="M 455.701 1576.2 C 456.949 1579.24 456.756 1579.14 456.531 1582.48 L 449.033 1591.91 C 447.691 1591.82 448.565 1591.97 446.577 1590.88 L 446.364 1588.08 L 455.701 1576.2 z"/>
<path transform="translate(0,0)" fill="rgb(242,221,162)" d="M 505.294 1399.58 C 515.492 1400.25 517.526 1407.27 521.489 1415.46 C 518.742 1438.88 510.227 1479.89 496.444 1498.59 L 487.846 1508.84 C 487.473 1504.36 486.577 1494.42 487.388 1490.22 C 491.464 1469.11 491.502 1414.28 505.294 1399.58 z"/>
<path transform="translate(0,0)" fill="rgb(242,221,162)" d="M 470.713 1564.42 C 472.735 1563.75 474.515 1563.37 476.577 1562.88 C 488.923 1567.77 481.627 1561.64 495.93 1558.38 C 479.247 1571.75 467.685 1581.24 452.216 1595.87 L 449.033 1591.91 L 456.531 1582.48 L 470.713 1564.42 z"/>
<path transform="translate(0,0)" fill="rgb(34,64,100)" d="M 1516.2 67.5617 C 1539.05 49.9024 1564.55 28.1431 1595.46 32.8389 C 1614.72 35.7658 1633.98 47.5162 1645.74 63.006 C 1671.42 96.8257 1653.33 129.339 1638.88 162.386 C 1634.47 171.473 1630.44 178.236 1625.76 186.944 C 1568.94 281.951 1508.29 374.614 1443.96 464.704 C 1425.77 490.683 1407.26 516.429 1388.42 541.937 C 1377.27 557.16 1359.03 581.242 1349.31 597.001 C 1340.9 607.247 1332.61 619.939 1324.48 630.848 L 1260.06 717.93 C 1250.61 730.757 1231.17 757.795 1220.51 768.732 L 1215.96 777.459 C 1213.22 777.815 1212.73 778.406 1211.09 780.93 C 1202.05 794.83 1193.73 811.058 1176.01 815.055 C 1173.54 815.612 1170.39 814.476 1167.62 814.21 C 1163.48 809.281 1150.01 797.596 1144.77 792.529 C 1111.88 760.733 1076.98 734.647 1038.8 709.591 C 1027.32 702.762 1016.73 696.501 1004.91 690.282 C 1002.8 689.471 996.857 686.219 994.549 685.037 C 994.617 666.982 996.727 660.831 1007.73 646.19 C 1013.9 637.987 1019.56 629.692 1026.3 621.774 C 1036.05 612.228 1057.31 583.751 1067.07 571.613 C 1096.91 534.154 1127.01 496.907 1157.37 459.876 C 1227.59 373.233 1300.97 289.202 1377.36 207.955 C 1409.41 173.67 1444.8 135.526 1478.59 103.333 C 1470.71 98.4221 1460.37 90.4403 1452.65 84.8345 C 1398.58 136.615 1346.98 190.904 1298.02 247.524 C 1270.08 280.526 1242.91 314.168 1216.53 348.423 C 1202.42 366.39 1173.99 399.357 1162.11 417.143 C 1161.89 421.637 1161.8 427.198 1161.48 431.536 C 1160.39 446.685 1153.32 460.781 1141.84 470.725 C 1129.55 481.477 1112.38 489.178 1095.83 488.045 C 1087.43 485.064 1087.26 482.183 1084.07 474.635 C 1088.97 466.967 1093.08 458.486 1098.55 451.099 C 1186.93 331.601 1276.16 211.384 1381.42 106.002 C 1399.34 88.0626 1416.89 68.9282 1438.21 55.1372 C 1445.66 50.3137 1453.11 52.2124 1460.97 54.4161 C 1473.05 62.9256 1486.67 72.7732 1497.46 82.8259 C 1503.38 87.4432 1509.48 90.6269 1516.01 94.3053 L 1517.38 94.7126 L 1536.64 106.486 C 1538.34 104.658 1538.13 105.026 1540.32 103.65 C 1541.18 103.708 1542.04 103.75 1542.91 103.777 C 1551.18 104.033 1551.36 97.334 1557.92 91.3969 C 1550.86 87.1957 1543.66 83.2329 1536.33 79.5152 L 1535.07 78.9847 L 1516.2 67.5617 z"/>
<path transform="translate(0,0)" fill="rgb(74,103,140)" d="M 1516.01 94.3053 L 1517.38 94.7126 L 1536.64 106.486 L 1542.17 110.319 C 1510.68 143.285 1479.62 181.611 1449.24 215.96 C 1326.59 354.424 1208.76 497.082 1095.95 643.679 C 1084.88 636.361 1068.66 625.741 1056.77 620.716 C 1067.14 611.268 1077.39 597.241 1086.12 586.101 C 1156.05 496.824 1227.05 408.021 1301.96 322.838 C 1365.31 250.806 1432.39 181.53 1498.41 111.948 C 1503.45 106.634 1512.32 100.041 1516.01 94.3053 z"/>
<path transform="translate(0,0)" fill="rgb(185,198,213)" d="M 994.549 685.037 C 994.617 666.982 996.727 660.831 1007.73 646.19 C 1013.9 637.987 1019.56 629.692 1026.3 621.774 C 1028.59 624.978 1042.22 630.904 1047.03 634.201 C 1059.02 640.667 1070.85 647.451 1082.49 654.548 C 1135.27 687.092 1179.5 722.034 1220.51 768.732 L 1215.96 777.459 C 1213.22 777.815 1212.73 778.406 1211.09 780.93 C 1202.05 794.83 1193.73 811.058 1176.01 815.055 C 1173.54 815.612 1170.39 814.476 1167.62 814.21 C 1163.48 809.281 1150.01 797.596 1144.77 792.529 C 1111.88 760.733 1076.98 734.647 1038.8 709.591 C 1027.32 702.762 1016.73 696.501 1004.91 690.282 C 1002.8 689.471 996.857 686.219 994.549 685.037 z"/>
<path transform="translate(0,0)" fill="rgb(253,252,252)" d="M 994.549 685.037 C 994.617 666.982 996.727 660.831 1007.73 646.19 C 1013.9 637.987 1019.56 629.692 1026.3 621.774 C 1028.59 624.978 1042.22 630.904 1047.03 634.201 C 1059.02 640.667 1070.85 647.451 1082.49 654.548 C 1081.72 656.579 1079.34 662.675 1078.26 664.105 C 1070.47 674.42 1047.71 703.528 1038.8 709.591 C 1027.32 702.762 1016.73 696.501 1004.91 690.282 C 1002.8 689.471 996.857 686.219 994.549 685.037 z"/>
<path transform="translate(0,0)" fill="rgb(185,198,213)" d="M 994.549 685.037 C 994.617 666.982 996.727 660.831 1007.73 646.19 C 1013.9 637.987 1019.56 629.692 1026.3 621.774 C 1028.59 624.978 1042.22 630.904 1047.03 634.201 C 1045.19 635.323 1005.53 688.291 1004.91 690.282 C 1002.8 689.471 996.857 686.219 994.549 685.037 z"/>
<path transform="translate(0,0)" fill="rgb(34,64,100)" d="M 1516.2 67.5617 C 1539.05 49.9024 1564.55 28.1431 1595.46 32.8389 C 1614.72 35.7658 1633.98 47.5162 1645.74 63.006 C 1671.42 96.8257 1653.33 129.339 1638.88 162.386 C 1624.24 140.263 1582.25 107.542 1559.63 92.2457 L 1557.92 91.3969 C 1550.86 87.1957 1543.66 83.2329 1536.33 79.5152 L 1535.07 78.9847 L 1516.2 67.5617 z"/>
<path transform="translate(0,0)" fill="rgb(74,103,140)" d="M 1535.07 78.9847 C 1557.49 63.6638 1572.35 40.8429 1599.48 60.4208 C 1591.27 67.9543 1563.66 87.3289 1559.63 92.2457 L 1557.92 91.3969 C 1550.86 87.1957 1543.66 83.2329 1536.33 79.5152 L 1535.07 78.9847 z"/>
<path transform="translate(0,0)" fill="rgb(185,198,213)" d="M 1084.07 474.635 C 1088.97 466.967 1093.08 458.486 1098.55 451.099 C 1186.93 331.601 1276.16 211.384 1381.42 106.002 C 1399.34 88.0626 1416.89 68.9282 1438.21 55.1372 C 1445.66 50.3137 1453.11 52.2124 1460.97 54.4161 C 1448.32 61.4336 1415.46 94.523 1404.56 105.585 C 1361.42 149.094 1320.25 194.52 1281.19 241.728 C 1236.74 295.51 1194.59 351.059 1152.41 406.91 C 1134.81 430.209 1111.84 459.265 1095.74 484.794 C 1095.14 485.747 1095.43 487.025 1095.83 488.045 C 1087.43 485.064 1087.26 482.183 1084.07 474.635 z"/>
<path transform="translate(0,0)" fill="rgb(185,198,213)" d="M 1557.92 91.3969 L 1559.63 92.2457 C 1582.25 107.542 1624.24 140.263 1638.88 162.386 C 1634.47 171.473 1630.44 178.236 1625.76 186.944 C 1623.27 169.939 1558.08 120.62 1542.17 110.319 L 1536.64 106.486 C 1538.34 104.658 1538.13 105.026 1540.32 103.65 C 1541.18 103.708 1542.04 103.75 1542.91 103.777 C 1551.18 104.033 1551.36 97.334 1557.92 91.3969 z"/>
<path transform="translate(0,0)" fill="rgb(253,252,252)" d="M 1497.46 82.8259 C 1502.22 78.1166 1510.7 71.8659 1516.2 67.5617 L 1535.07 78.9847 L 1536.33 79.5152 C 1543.66 83.2329 1550.86 87.1957 1557.92 91.3969 C 1551.36 97.334 1551.18 104.033 1542.91 103.777 C 1542.04 103.75 1541.18 103.708 1540.32 103.65 C 1538.13 105.026 1538.34 104.658 1536.64 106.486 L 1517.38 94.7126 L 1516.01 94.3053 C 1509.48 90.6269 1503.38 87.4432 1497.46 82.8259 z"/>
<path transform="translate(0,0)" fill="rgb(185,198,213)" d="M 1497.46 82.8259 C 1502.22 78.1166 1510.7 71.8659 1516.2 67.5617 L 1535.07 78.9847 L 1536.33 79.5152 C 1527.04 83.3333 1519.75 83.8137 1517.38 94.7126 L 1516.01 94.3053 C 1509.48 90.6269 1503.38 87.4432 1497.46 82.8259 z"/>
</svg>